<svg width="153" height="42" viewBox="0 0 153 42" fill="none" xmlns="http://www.w3.org/2000/svg">
<path d="M54.8931 9.97575C54.9987 10.1605 55.0779 10.3584 55.1438 10.5959C55.2098 10.8334 55.2362 11.0577 55.2362 11.2557V17.5365C55.2362 17.7872 55.1043 17.9192 54.8535 17.9192H52.9666C52.7159 17.9192 52.584 17.7872 52.584 17.5365V4.85605C52.584 4.60534 52.7159 4.47339 52.9666 4.47339H54.8535C55.0779 4.47339 55.2758 4.60534 55.4341 4.85605L58.8517 10.7279L62.256 4.85605C62.4143 4.60534 62.5991 4.47339 62.8366 4.47339H64.7235C64.9742 4.47339 65.1061 4.60534 65.1061 4.85605V17.5365C65.1061 17.7872 64.9742 17.9192 64.7235 17.9192H62.8366C62.5859 17.9192 62.4539 17.7872 62.4539 17.5365V10.398C62.4539 9.88338 62.322 9.85699 62.0713 10.3056L59.2079 15.2802C59.1024 15.4649 58.9968 15.5441 58.878 15.5309C58.7593 15.5177 58.6405 15.4385 58.5482 15.2802L55.0515 9.2896C55.0119 9.21043 54.9591 9.17085 54.8931 9.15765C54.8272 9.14445 54.7612 9.15765 54.7084 9.18404C54.6556 9.21043 54.6292 9.26321 54.616 9.32918C54.6028 9.39516 54.616 9.47433 54.6688 9.57989L54.8931 9.97575Z" fill="white"/>
<path d="M68.9591 14.251C69.1571 14.251 69.289 14.3433 69.3814 14.5412C69.5925 14.9899 69.9224 15.333 70.3314 15.5705C70.7537 15.808 71.2683 15.9267 71.8752 15.9267C72.3239 15.9267 72.7197 15.8608 73.076 15.7288C73.4323 15.5969 73.7226 15.3989 73.9469 15.1482C74.0524 15.0427 74.158 14.9899 74.2768 14.9899C74.3691 14.9899 74.4483 15.0295 74.5275 15.1086L75.8206 16.3754C76.0317 16.5997 76.0317 16.7844 75.781 16.956C75.2532 17.3254 74.6594 17.6157 73.9997 17.8268C73.3399 18.0379 72.6274 18.1435 71.8884 18.1435C71.0835 18.1435 70.3182 18.0248 69.6189 17.7872C68.9064 17.5497 68.2862 17.2067 67.7452 16.7712C67.2042 16.3358 66.7819 15.7948 66.4653 15.1878C66.1486 14.5676 65.9902 13.8947 65.9902 13.1294C65.9902 12.2981 66.1486 11.5724 66.4784 10.9522C66.8083 10.332 67.2306 9.8042 67.7716 9.38196C68.2994 8.95972 68.9063 8.64303 69.5793 8.43191C70.2522 8.22079 70.9384 8.11523 71.6245 8.11523C72.2711 8.11523 72.8913 8.2076 73.5114 8.39233C74.1316 8.57706 74.6726 8.85416 75.1476 9.23682C75.6227 9.61948 76.0053 10.0813 76.2956 10.6487C76.5859 11.2161 76.731 11.8758 76.731 12.6412V13.1558C76.731 13.3405 76.6783 13.4856 76.5595 13.5912C76.4408 13.71 76.2956 13.7627 76.1241 13.7627H68.2334C68.1146 13.7627 68.0355 13.7891 67.9695 13.8419C67.9167 13.8947 67.8771 13.9475 67.8771 14.0002C67.8771 14.053 67.9035 14.119 67.9695 14.1586C68.0223 14.2114 68.1146 14.2378 68.2334 14.2378H68.9591V14.251ZM73.2739 11.9286C73.4059 11.9286 73.4982 11.889 73.5774 11.8099C73.6434 11.7307 73.6698 11.6383 73.6434 11.546C73.5378 11.1369 73.2871 10.8334 72.8913 10.6223C72.4822 10.4112 72.06 10.3188 71.6113 10.3188C71.1891 10.3188 70.8064 10.398 70.4502 10.5563C70.0939 10.7147 69.7904 11.0182 69.5133 11.4668C69.4341 11.5987 69.421 11.7043 69.4737 11.7967C69.5265 11.889 69.6321 11.9286 69.7772 11.9286H73.2739Z" fill="white"/>
<path d="M78.407 10.5299C78.407 10.2924 78.2883 10.1605 78.0376 10.1605H77.3646C77.0875 10.1605 76.9424 10.0153 76.9424 9.73822V8.73539C76.9424 8.45829 77.0875 8.31315 77.3646 8.31315C77.5757 8.31315 77.7605 8.29995 77.9056 8.27356C78.0508 8.24717 78.1695 8.20759 78.2751 8.15481C78.3806 8.10203 78.4862 8.03605 78.5654 7.93049C78.6445 7.83812 78.7369 7.71937 78.8425 7.60061L79.4363 6.8353C79.5022 6.74293 79.5682 6.66376 79.6606 6.5714C79.7397 6.49223 79.8453 6.45264 79.9641 6.45264H81.0592C81.31 6.45264 81.4419 6.58459 81.4419 6.8353V7.94368C81.4419 8.18119 81.5607 8.31315 81.8114 8.31315H82.9462C83.2233 8.31315 83.3684 8.45829 83.3684 8.73539V9.73822C83.3684 10.0153 83.2233 10.1605 82.9462 10.1605H80.1224C79.9773 10.1605 79.9113 10.2264 79.8981 10.3716C79.8849 10.5167 79.9641 10.5827 80.1224 10.5827H80.6766C80.9009 10.5827 81.0988 10.6487 81.2308 10.7938C81.3759 10.939 81.4419 11.1237 81.4419 11.348V14.053C81.4419 14.4621 81.4551 14.7787 81.4947 15.0031C81.5343 15.2274 81.6003 15.3857 81.6794 15.4781C81.7586 15.5705 81.8641 15.61 81.9829 15.61C82.1017 15.61 82.2468 15.5968 82.4184 15.5705C82.6954 15.5309 82.8538 15.6364 82.8934 15.9003L83.1177 17.6817C83.1573 17.972 83.0385 18.1171 82.7482 18.1171C82.5503 18.1171 82.3128 18.1171 82.0225 18.1039C81.7322 18.1039 81.4155 18.0643 81.0856 18.0116C80.7558 17.9588 80.4391 17.8532 80.1092 17.7213C79.7925 17.5893 79.5022 17.3914 79.2383 17.1143C78.9876 16.8504 78.7765 16.5073 78.6182 16.0851C78.4598 15.6628 78.3806 15.1482 78.3806 14.5148V10.5299H78.407Z" fill="white"/>
<path d="M92.9878 8.72219C92.8822 8.62982 92.8558 8.53746 92.8822 8.45829C92.9086 8.36592 92.9878 8.32634 93.1066 8.32634H95.5213C95.772 8.32634 95.9039 8.45829 95.9039 8.709V17.4441C95.9039 17.7608 95.7456 17.9192 95.4289 17.9192H94.083C93.9379 17.9192 93.8059 17.8664 93.6872 17.7608C93.5684 17.6553 93.4496 17.5497 93.3573 17.4441L92.8822 16.9823C92.4468 17.3518 91.9454 17.6421 91.378 17.84C90.8106 18.0379 90.1772 18.1435 89.4911 18.1435C88.3167 18.1435 87.3271 17.8928 86.5354 17.4046C85.7437 16.9163 85.1499 16.2962 84.7541 15.5573C84.3582 14.8183 84.1603 14.0134 84.1735 13.1425C84.1735 12.2717 84.3846 11.4668 84.7673 10.7278C85.1631 9.98892 85.7437 9.36875 86.5486 8.88053C87.3403 8.39231 88.3299 8.1416 89.5043 8.1416C90.296 8.1416 91.0085 8.27355 91.6419 8.53745C92.2753 8.80136 92.8031 9.17082 93.2517 9.64585C93.3705 9.7778 93.4892 9.83058 93.6344 9.80419C93.7267 9.7778 93.7795 9.72501 93.8191 9.65904C93.8455 9.59306 93.8191 9.5139 93.7267 9.43473L92.9878 8.72219ZM90.0717 15.9267C90.9162 15.9267 91.5891 15.676 92.1037 15.1614C92.6183 14.6468 92.869 13.9738 92.869 13.1294C92.869 12.2849 92.6183 11.6119 92.1037 11.0973C91.5891 10.5827 90.9162 10.332 90.0717 10.332C89.4383 10.332 88.9237 10.4639 88.5015 10.741C88.0792 11.0181 87.7757 11.3612 87.5646 11.7835C87.3535 12.2057 87.2479 12.6543 87.2479 13.1425C87.2479 13.6308 87.3535 14.0794 87.5646 14.5016C87.7757 14.9239 88.0924 15.267 88.5015 15.5441C88.9237 15.7948 89.4383 15.9267 90.0717 15.9267Z" fill="white"/>
<path d="M100.205 17.5365C100.205 17.7872 100.073 17.9192 99.8222 17.9192H97.5526C97.3019 17.9192 97.1699 17.7872 97.1699 17.5365V4.85605C97.1699 4.60534 97.3019 4.47339 97.5526 4.47339H99.8222C100.073 4.47339 100.205 4.60534 100.205 4.85605V17.5365Z" fill="white"/>
<path d="M113.004 4.24902C114.086 4.24902 115.023 4.39418 115.775 4.68447C116.541 4.97476 117.161 5.37061 117.649 5.87203C117.754 5.97759 117.807 6.09634 117.807 6.24149C117.807 6.38663 117.754 6.53178 117.636 6.65053L116.541 7.8249C116.316 8.06241 116.105 8.04921 115.92 7.77212C115.538 7.19153 115.089 6.76929 114.588 6.50539C114.086 6.24149 113.558 6.09634 113.017 6.09634C112.358 6.09634 111.764 6.24149 111.262 6.53178C110.761 6.82207 110.339 7.21793 110.009 7.69295C109.679 8.16797 109.442 8.72216 109.27 9.32914C109.098 9.94931 109.019 10.5695 109.019 11.216C109.019 11.8494 109.098 12.4564 109.27 13.0634C109.442 13.6703 109.692 14.1981 110.022 14.6732C110.352 15.1482 110.774 15.5308 111.276 15.8211C111.777 16.1114 112.358 16.2566 113.017 16.2566C113.558 16.2566 114.073 16.1246 114.588 15.8475C115.089 15.5836 115.538 15.1614 115.92 14.5808C116.105 14.3037 116.303 14.2773 116.541 14.528L117.636 15.7024C117.754 15.8343 117.807 15.9663 117.807 16.1114C117.807 16.2566 117.754 16.3885 117.649 16.4809C117.161 16.9823 116.541 17.3782 115.775 17.6684C115.01 17.9587 114.086 18.1039 113.004 18.1039C111.83 18.1039 110.787 17.906 109.903 17.5101C109.019 17.1142 108.267 16.5864 107.673 15.9399C107.08 15.2933 106.631 14.5412 106.341 13.7099C106.05 12.8786 105.905 12.0209 105.905 11.1501C105.905 10.2792 106.05 9.42151 106.341 8.59022C106.631 7.75892 107.08 7.02 107.673 6.37344C108.267 5.72688 109.006 5.19907 109.89 4.80322C110.774 4.44695 111.803 4.24902 113.004 4.24902Z" fill="white"/>
<path d="M126.635 11.1501C126.635 11.2821 126.609 11.3745 126.543 11.4536C126.477 11.5196 126.411 11.5592 126.332 11.5592C126.253 11.5592 126.174 11.5196 126.108 11.4404C125.698 10.9918 125.303 10.6883 124.907 10.5432C124.511 10.398 124.115 10.3188 123.706 10.3188C123.534 10.3188 123.337 10.3452 123.112 10.3848C122.888 10.4244 122.664 10.5168 122.466 10.6619C122.268 10.8071 122.096 11.005 121.951 11.2689C121.806 11.5328 121.74 11.8891 121.74 12.3377V17.4442C121.74 17.5893 121.687 17.6949 121.582 17.7873C121.476 17.8796 121.357 17.9192 121.212 17.9192H119.18C118.863 17.9192 118.705 17.7609 118.705 17.4442V8.70905C118.705 8.45835 118.837 8.32639 119.088 8.32639H121.502C121.621 8.32639 121.687 8.36598 121.727 8.45834C121.753 8.55071 121.727 8.64307 121.621 8.72224L120.975 9.34242C120.856 9.44798 120.829 9.54034 120.882 9.63271C120.935 9.72508 121.014 9.76466 121.107 9.76466C121.212 9.76466 121.305 9.71188 121.397 9.60632C121.819 9.15768 122.294 8.81461 122.835 8.5639C123.376 8.31319 123.878 8.16805 124.339 8.12847C124.735 8.10207 125.118 8.11527 125.501 8.18125C125.883 8.23403 126.173 8.32639 126.398 8.44515C126.517 8.51113 126.583 8.59029 126.609 8.66946C126.635 8.76183 126.649 8.8278 126.649 8.86739V11.1501H126.635Z" fill="white"/>
<path d="M135.99 8.72219C135.884 8.62982 135.858 8.53746 135.884 8.45829C135.911 8.36592 135.99 8.32634 136.109 8.32634H138.523C138.774 8.32634 138.906 8.45829 138.906 8.709V17.4441C138.906 17.7608 138.748 17.9192 138.431 17.9192H137.085C136.94 17.9192 136.808 17.8664 136.689 17.7608C136.57 17.6553 136.452 17.5497 136.359 17.4441L135.884 16.9823C135.449 17.3518 134.947 17.6421 134.38 17.84C133.813 18.0379 133.179 18.1435 132.493 18.1435C131.319 18.1435 130.329 17.8928 129.537 17.4046C128.746 16.9163 128.152 16.2962 127.756 15.5573C127.36 14.8183 127.162 14.0134 127.175 13.1425C127.175 12.2717 127.387 11.4668 127.769 10.7278C128.165 9.98892 128.746 9.36875 129.551 8.88053C130.342 8.39231 131.332 8.1416 132.506 8.1416C133.298 8.1416 134.01 8.27355 134.644 8.53745C135.277 8.80136 135.805 9.17082 136.254 9.64585C136.372 9.7778 136.491 9.83058 136.636 9.80419C136.729 9.7778 136.781 9.72501 136.821 9.65904C136.847 9.59306 136.821 9.5139 136.729 9.43473L135.99 8.72219ZM133.074 15.9267C133.918 15.9267 134.591 15.676 135.106 15.1614C135.62 14.6468 135.871 13.9738 135.871 13.1294C135.871 12.2849 135.62 11.6119 135.106 11.0973C134.591 10.5827 133.918 10.332 133.074 10.332C132.44 10.332 131.926 10.4639 131.503 10.741C131.081 11.0181 130.778 11.3612 130.567 11.7835C130.355 12.2057 130.25 12.6543 130.25 13.1425C130.25 13.6308 130.355 14.0794 130.567 14.5016C130.778 14.9239 131.094 15.267 131.503 15.5441C131.926 15.7948 132.44 15.9267 133.074 15.9267Z" fill="white"/>
<path d="M145.319 8.32645C145.596 8.32645 145.741 8.4716 145.741 8.7487V9.75152C145.741 10.0286 145.596 10.1738 145.319 10.1738H142.535C142.416 10.1738 142.337 10.2002 142.271 10.2529C142.218 10.3057 142.178 10.3585 142.178 10.4113C142.178 10.4641 142.205 10.53 142.271 10.5696C142.324 10.6224 142.416 10.6488 142.535 10.6488H143.247C143.406 10.6488 143.524 10.7016 143.617 10.7939C143.709 10.8863 143.762 11.0183 143.762 11.1634V17.5366C143.762 17.7873 143.63 17.9193 143.379 17.9193H141.11C140.859 17.9193 140.727 17.7873 140.727 17.5366V10.4509C140.727 10.2529 140.635 10.1606 140.437 10.1606H140.212C139.935 10.1606 139.79 10.0154 139.79 9.73833V8.7355C139.79 8.4584 139.935 8.31326 140.212 8.31326H140.463C140.648 8.31326 140.74 8.22089 140.766 8.02296C140.846 7.3896 140.991 6.87499 141.228 6.45274C141.453 6.0305 141.73 5.68743 142.046 5.41034C142.363 5.13324 142.706 4.92212 143.076 4.79016C143.445 4.64502 143.815 4.55265 144.171 4.48668C144.527 4.4207 144.87 4.38111 145.174 4.38111C145.49 4.38111 145.741 4.36792 145.939 4.36792C146.216 4.36792 146.348 4.51306 146.308 4.80336L146.084 6.5847C146.045 6.8354 145.886 6.95416 145.609 6.91457C145.477 6.88818 145.345 6.86179 145.187 6.82221C145.028 6.79582 144.883 6.76943 144.725 6.76943C144.487 6.76943 144.263 6.8486 144.078 7.00694C143.881 7.16528 143.788 7.50835 143.788 8.03616V8.07574C143.788 8.22089 143.854 8.28687 143.999 8.28687H145.319V8.32645Z" fill="white"/>
<path d="M148.037 10.5299C148.037 10.2924 147.918 10.1605 147.667 10.1605H146.995C146.717 10.1605 146.572 10.0153 146.572 9.73822V8.73539C146.572 8.45829 146.717 8.31315 146.995 8.31315C147.206 8.31315 147.39 8.29995 147.536 8.27356C147.681 8.24717 147.799 8.20759 147.905 8.15481C148.011 8.10203 148.116 8.03605 148.195 7.93049C148.274 7.83812 148.367 7.71937 148.472 7.60061L149.066 6.8353C149.132 6.74293 149.198 6.66376 149.29 6.5714C149.37 6.49223 149.475 6.45264 149.594 6.45264H150.689C150.94 6.45264 151.072 6.58459 151.072 6.8353V7.94368C151.072 8.18119 151.191 8.31315 151.441 8.31315H152.576C152.853 8.31315 152.998 8.45829 152.998 8.73539V9.73822C152.998 10.0153 152.853 10.1605 152.576 10.1605H149.752C149.607 10.1605 149.541 10.2264 149.528 10.3716C149.528 10.5167 149.594 10.5827 149.752 10.5827H150.306C150.531 10.5827 150.729 10.6487 150.861 10.7938C151.006 10.939 151.072 11.1237 151.072 11.348V14.053C151.072 14.4621 151.085 14.7787 151.125 15.0031C151.164 15.2274 151.23 15.3857 151.309 15.4781C151.388 15.5705 151.494 15.61 151.613 15.61C151.732 15.61 151.877 15.5968 152.048 15.5705C152.325 15.5309 152.484 15.6364 152.523 15.9003L152.748 17.6817C152.787 17.972 152.668 18.1171 152.378 18.1171C152.18 18.1171 151.943 18.1171 151.652 18.1039C151.362 18.1039 151.045 18.0643 150.716 18.0116C150.386 17.9588 150.069 17.8532 149.739 17.7213C149.422 17.5893 149.132 17.3914 148.868 17.1143C148.618 16.8504 148.406 16.5073 148.248 16.0851C148.09 15.6628 148.011 15.1482 148.011 14.5148V10.5299H148.037Z" fill="white"/>
<path d="M56.9643 34.5185C55.5788 34.5185 54.51 34.1754 53.7446 33.4761C52.9793 32.7767 52.5967 31.8003 52.5967 30.5468C52.5967 29.1877 53.0189 28.1189 53.8766 27.3404C54.7343 26.5618 55.8823 26.166 57.3205 26.166H58.4553V25.084H59.9332V33.1726H61.8992C61.952 33.1726 61.9784 33.199 61.9784 33.2386V34.4393C61.9784 34.4921 61.952 34.5185 61.8992 34.5185H56.9643ZM58.4553 33.1726V27.4987H57.3601C56.3309 27.4987 55.526 27.7626 54.9718 28.2904C54.4044 28.8182 54.1273 29.5571 54.1273 30.5204C54.1273 31.3781 54.3648 32.0378 54.853 32.4864C55.3413 32.9351 56.0274 33.1726 56.9379 33.1726H58.4553ZM56.0802 23.4874C55.8163 23.4874 55.5788 23.4082 55.394 23.2499C55.2093 23.0915 55.1169 22.8276 55.1169 22.4582C55.1169 22.0887 55.2093 21.8248 55.394 21.6665C55.5788 21.5081 55.8163 21.429 56.0802 21.429C56.3705 21.429 56.608 21.5213 56.7795 21.6929C56.9511 21.8644 57.0434 22.1283 57.0434 22.4582C57.0434 22.788 56.9643 23.0388 56.7927 23.2235C56.608 23.395 56.3705 23.4874 56.0802 23.4874ZM59.0491 23.4874C58.7456 23.4874 58.5213 23.395 58.3365 23.2235C58.165 23.0388 58.0726 22.788 58.0726 22.4582C58.0726 22.1283 58.1518 21.8776 58.3233 21.6929C58.4949 21.5081 58.7324 21.429 59.0359 21.429C59.3394 21.429 59.5769 21.5213 59.7484 21.7061C59.92 21.8908 59.9991 22.1415 59.9991 22.4582C59.9991 22.7749 59.92 23.0256 59.7484 23.2103C59.6033 23.395 59.3658 23.4874 59.0491 23.4874Z" fill="#C27AC0"/>
<path d="M61.7139 34.5185C61.6612 34.5185 61.6348 34.4921 61.6348 34.4394V33.2386C61.6348 33.199 61.6612 33.1726 61.7139 33.1726H64.5113V26.166H66.0419V33.1726H68.6282C68.681 33.1726 68.7073 33.199 68.7073 33.2386V34.4394C68.7073 34.4921 68.681 34.5185 68.6282 34.5185H61.7139ZM63.8383 37.9756C63.5744 37.9756 63.3369 37.8965 63.1522 37.7381C62.9675 37.5798 62.8751 37.3159 62.8751 36.9464C62.8751 36.577 62.9675 36.3131 63.1522 36.1547C63.3369 35.9964 63.5744 35.9172 63.8383 35.9172C64.1286 35.9172 64.3662 36.0096 64.5377 36.1811C64.7092 36.3526 64.8016 36.6165 64.8016 36.9464C64.8016 37.2763 64.7224 37.527 64.5509 37.7117C64.3661 37.8833 64.1286 37.9756 63.8383 37.9756ZM66.8072 37.9756C66.5038 37.9756 66.2794 37.8833 66.0947 37.7117C65.9232 37.527 65.8308 37.2763 65.8308 36.9464C65.8308 36.6165 65.91 36.3658 66.0815 36.1811C66.253 35.9964 66.4906 35.9172 66.794 35.9172C67.0975 35.9172 67.335 36.0096 67.5066 36.1943C67.6781 36.379 67.7573 36.6297 67.7573 36.9464C67.7573 37.2631 67.6781 37.5138 67.5066 37.6985C67.3614 37.8701 67.1239 37.9756 66.8072 37.9756Z" fill="#C27AC0"/>
<path d="M68.4571 34.5186C68.4043 34.5186 68.3779 34.4922 68.3779 34.4394V33.2386C68.3779 33.1991 68.4043 33.1727 68.4571 33.1727H70.7267V26.1661H72.2573V34.5186H68.4571ZM71.4788 24.5299C71.1753 24.5299 70.951 24.4375 70.7662 24.266C70.5947 24.0812 70.5023 23.8305 70.5023 23.5007C70.5023 23.1708 70.5815 22.9201 70.753 22.7353C70.9246 22.5506 71.1621 22.4714 71.4656 22.4714C71.7691 22.4714 72.0066 22.5638 72.1781 22.7485C72.3497 22.9333 72.4288 23.184 72.4288 23.5007C72.4288 23.8173 72.3497 24.068 72.1781 24.2528C72.033 24.4243 71.7955 24.5299 71.4788 24.5299Z" fill="#C27AC0"/>
<path d="M74.5 33.1728H80.2399C80.0156 31.629 79.5801 30.3227 78.9467 29.2275C78.3134 28.1455 77.4161 27.2086 76.2417 26.4169L76.7959 25.1106C78.1155 25.8099 79.1975 26.8392 80.0288 28.1983C80.86 29.5573 81.4142 31.2199 81.7045 33.1728H83.6178C83.6706 33.1728 83.697 33.1992 83.697 33.2388V34.4395C83.697 34.4923 83.6706 34.5187 83.6178 34.5187H74.5V33.1728Z" fill="#C27AC0"/>
<path d="M91.8257 34.5185C91.3375 34.5185 90.8229 34.4525 90.2687 34.3074C89.7145 34.1622 89.1735 33.9511 88.6325 33.6608C87.6165 34.2282 86.5609 34.5185 85.4261 34.5185H83.4337C83.3809 34.5185 83.3545 34.4921 83.3545 34.4393V33.2386C83.3545 33.199 83.3809 33.1726 83.4337 33.1726H85.4129C86.231 33.1726 86.9172 33.0538 87.4714 32.8295C87.0227 32.5128 86.5741 32.051 86.1123 31.444C85.6504 30.8371 85.2546 30.1905 84.9379 29.4912C84.6212 28.7918 84.4101 28.1321 84.3045 27.4987C84.9379 26.9049 85.6373 26.4431 86.429 26.1132C87.2207 25.7702 88.0256 25.6118 88.8437 25.6118C89.5694 25.6118 90.2951 25.7306 91.034 25.9549C91.773 26.1792 92.4063 26.4959 92.9605 26.8785C92.9605 28.0661 92.6834 29.1877 92.1424 30.2433C91.5882 31.2989 90.8361 32.1566 89.8729 32.8163C90.5062 33.0539 91.1528 33.1726 91.7862 33.1726H93.871C93.9238 33.1726 93.9502 33.199 93.9502 33.2386V34.4393C93.9502 34.4921 93.9238 34.5185 93.871 34.5185H91.8257ZM88.6589 32.051C89.543 31.4573 90.2027 30.7975 90.6382 30.0718C91.0736 29.3592 91.3111 28.5279 91.3639 27.5911C90.559 27.1688 89.7409 26.9577 88.8832 26.9577C87.9068 26.9577 86.9304 27.2876 85.9539 27.9606C86.1255 28.7523 86.4553 29.4912 86.9304 30.2169C87.4054 30.9294 87.986 31.5496 88.6589 32.051Z" fill="#C27AC0"/>
<path d="M93.6729 34.5186C93.6201 34.5186 93.5938 34.4922 93.5938 34.4395V33.2387C93.5938 33.1991 93.6201 33.1727 93.6729 33.1727H95.8105C95.3883 32.0643 95.1772 31.0747 95.1772 30.2302C95.1772 29.201 95.3883 28.2905 95.7973 27.4856C96.2196 27.1294 96.6946 26.8523 97.2488 26.6411C97.7898 26.43 98.3572 26.3245 98.951 26.3245C99.6635 26.3245 100.297 26.4828 100.838 26.7995C101.379 27.1162 101.801 27.5648 102.091 28.1454C102.382 28.726 102.527 29.3857 102.527 30.1246C102.527 30.8636 102.408 31.5365 102.171 32.1567C102.421 32.5262 102.698 32.7901 103.002 32.9352C103.305 33.0804 103.714 33.1595 104.216 33.1595H104.295C104.361 33.1595 104.387 33.1859 104.387 33.2255V34.4263C104.387 34.479 104.361 34.5054 104.295 34.5054H104.216C103.609 34.5054 103.081 34.4263 102.646 34.2547C102.21 34.0832 101.801 33.7929 101.405 33.3838C101.036 33.7665 100.614 34.0436 100.125 34.2283C99.6371 34.4131 99.1357 34.5054 98.6079 34.5054H93.6729V34.5186ZM96.721 29.9399C96.721 30.4677 96.7738 30.9955 96.8661 31.5101C96.9585 32.0247 97.13 32.5789 97.3808 33.1859H98.5947C99.36 33.1859 99.9538 32.922 100.363 32.4074C100.772 31.8796 100.983 31.1275 100.983 30.1379C100.983 29.4121 100.785 28.8183 100.389 28.3565C99.9934 27.8947 99.5183 27.6704 98.951 27.6704C98.5815 27.6704 98.2252 27.7363 97.8822 27.8683C97.5259 28.0002 97.2224 28.1718 96.9453 28.3829C96.8529 28.6204 96.787 28.8711 96.7738 29.1218C96.7342 29.3593 96.721 29.6364 96.721 29.9399Z" fill="#C27AC0"/>
<path d="M104.123 34.5185C104.07 34.5185 104.044 34.4921 104.044 34.4393V33.2386C104.044 33.199 104.07 33.1726 104.123 33.1726H106.393V21.429H107.923V34.5185H104.123Z" fill="#C27AC0"/>
<path d="M111.367 21.429H112.898V34.5185H111.367V21.429Z" fill="#C27AC0"/>
<path d="M124.827 34.5186C123.837 34.5186 123.045 34.2151 122.465 33.6213C121.884 33.0275 121.594 32.2094 121.594 31.1802C121.594 30.7975 121.633 30.3621 121.712 29.8607C121.792 29.3593 121.897 28.937 122.016 28.594H123.401C123.23 29.4252 123.138 30.2434 123.138 31.0615C123.138 31.6948 123.283 32.1962 123.586 32.5921C123.89 32.9879 124.272 33.1859 124.761 33.1859H130.368C130.105 32.8956 129.88 32.5129 129.722 32.0379C129.55 31.5629 129.471 31.0746 129.471 30.5864C129.471 29.2405 129.893 28.1717 130.738 27.3668C131.582 26.5751 132.73 26.1661 134.195 26.1661H136.451V34.5186H124.827ZM134.987 33.1727V27.4988H134.248C133.232 27.4988 132.427 27.7627 131.86 28.3037C131.292 28.8315 131.002 29.5836 131.002 30.56C131.002 32.3018 131.794 33.1727 133.364 33.1727H134.987ZM133.192 24.5299C132.889 24.5299 132.664 24.4375 132.48 24.266C132.308 24.0812 132.216 23.8305 132.216 23.5007C132.216 23.1708 132.295 22.9201 132.467 22.7353C132.638 22.5506 132.876 22.4714 133.179 22.4714C133.483 22.4714 133.72 22.5638 133.892 22.7485C134.063 22.9333 134.142 23.184 134.142 23.5007C134.142 23.8173 134.063 24.068 133.892 24.2528C133.746 24.4243 133.509 24.5299 133.192 24.5299Z" fill="#C27AC0"/>
<path d="M142.073 34.5185V34.9276C142.073 36.0887 141.809 36.9992 141.281 37.659C140.753 38.3187 139.988 38.6486 138.998 38.6486C138.444 38.6486 137.863 38.4903 137.243 38.1604L137.692 37.0124C137.969 37.1312 138.206 37.2103 138.378 37.2499C138.563 37.2895 138.747 37.3027 138.972 37.3027C139.486 37.3027 139.895 37.0916 140.186 36.6693C140.476 36.2471 140.621 35.6929 140.621 35.0067V26.1528H142.073V33.1594H144.197C144.263 33.1594 144.289 33.1858 144.289 33.2254V34.4262C144.289 34.479 144.263 34.5053 144.197 34.5053H142.073V34.5185Z" fill="#C27AC0"/>
<path d="M144.025 34.5187C143.973 34.5187 143.946 34.4923 143.946 34.4395V33.2387C143.946 33.1992 143.973 33.1728 144.025 33.1728H151.415C150.992 32.7505 150.636 31.6949 150.333 30.0191C150.161 29.0295 149.924 28.3302 149.607 27.9343C149.29 27.5384 148.802 27.3405 148.169 27.3405C147.377 27.3405 146.546 27.5648 145.675 28.0267L145.081 26.8391C145.569 26.5224 146.071 26.2981 146.572 26.1794C147.074 26.0606 147.615 25.9946 148.195 25.9946C148.894 25.9946 149.488 26.1266 149.95 26.3773C150.425 26.628 150.795 27.0107 151.072 27.4989C151.349 28.0003 151.56 28.7128 151.705 29.6365C151.877 30.6657 152.061 31.4574 152.272 32.0116C152.484 32.5658 152.721 32.9748 152.998 33.2255V34.5319H144.025V34.5187Z" fill="#C27AC0"/>
<path d="M44.6126 0H44.2168V42H44.6126V0Z" fill="white"/>
<path d="M4.71065 19.1196V16.4014V13.7492L0 11.0442V13.261V13.6964V15.9924V16.4146V25.9942V28.4353L4.71065 25.7303V19.1196Z" fill="#C27AC0"/>
<path d="M18.1169 5.56821L28.7522 11.6776L33.476 8.95935L32.8558 8.60308L22.854 2.85002L20.4788 1.49093L18.1169 0.131836L15.755 1.49093L13.3931 2.85002L4.71069 7.83777L2.75781 8.95935L7.48166 11.6776L18.1169 5.56821Z" fill="white"/>
<path d="M18.1173 36.4185L7.36334 30.23L5.3049 29.0557L0.581055 31.7739L2.3492 32.8031L4.71112 34.149L13.3935 39.1367L15.7554 40.4958L18.1173 41.8549L20.4793 40.4958L22.8544 39.1367L31.5236 34.149L33.8855 32.8031L35.6536 31.7739L30.9298 29.0557L18.1173 36.4185Z" fill="white"/>
<path d="M31.5234 13.7492V19.1196V21.4815V25.7303L36.2341 28.4353V25.9942V16.4146V15.9924V13.6964V13.261V11.0442L31.5234 13.7492Z" fill="#C27AC0"/>
<path d="M28.8713 15.2139L18.1173 21.3892L7.36328 15.2139V17.9321V20.6503L13.3934 24.1074L15.7554 25.4665L18.1173 26.8388L20.4792 25.4665L22.8543 24.1074L28.8713 20.6503V15.2139Z" fill="#C27AC0"/>
</svg>
