<svg width="24" height="24" viewBox="0 0 24 24" fill="none" xmlns="http://www.w3.org/2000/svg">
<path d="M19.3846 1.84615H17.8462V0.923077C17.8462 0.413538 17.4326 0 16.9231 0C16.4135 0 16 0.413538 16 0.923077V1.84615H8V0.923077C8 0.413538 7.58646 0 7.07692 0C6.56738 0 6.15385 0.413538 6.15385 0.923077V1.84615H4.61538C1.63938 1.84615 0 3.48554 0 6.46154V19.3846C0 22.3606 1.63938 24 4.61538 24H19.3846C22.3606 24 24 22.3606 24 19.3846V6.46154C24 3.48554 22.3606 1.84615 19.3846 1.84615ZM4.61538 3.69231H6.15385V4.61538C6.15385 5.12492 6.56738 5.53846 7.07692 5.53846C7.58646 5.53846 8 5.12492 8 4.61538V3.69231H16V4.61538C16 5.12492 16.4135 5.53846 16.9231 5.53846C17.4326 5.53846 17.8462 5.12492 17.8462 4.61538V3.69231H19.3846C21.3255 3.69231 22.1538 4.52062 22.1538 6.46154V7.38462H1.84615V6.46154C1.84615 4.52062 2.67446 3.69231 4.61538 3.69231ZM19.3846 22.1538H4.61538C2.67446 22.1538 1.84615 21.3255 1.84615 19.3846V9.23077H22.1538V19.3846C22.1538 21.3255 21.3255 22.1538 19.3846 22.1538ZM8.33233 13.2308C8.33233 13.9102 7.78218 14.4615 7.10156 14.4615C6.42218 14.4615 5.86448 13.9102 5.86448 13.2308C5.86448 12.5514 6.40986 12 7.08924 12H7.10156C7.78095 12 8.33233 12.5514 8.33233 13.2308ZM13.2554 13.2308C13.2554 13.9102 12.7053 14.4615 12.0246 14.4615C11.3453 14.4615 10.7876 13.9102 10.7876 13.2308C10.7876 12.5514 11.3329 12 12.0123 12H12.0246C12.704 12 13.2554 12.5514 13.2554 13.2308ZM18.1785 13.2308C18.1785 13.9102 17.6283 14.4615 16.9477 14.4615C16.2683 14.4615 15.7106 13.9102 15.7106 13.2308C15.7106 12.5514 16.256 12 16.9354 12H16.9477C17.6271 12 18.1785 12.5514 18.1785 13.2308ZM8.33233 18.1538C8.33233 18.8332 7.78218 19.3846 7.10156 19.3846C6.42218 19.3846 5.86448 18.8332 5.86448 18.1538C5.86448 17.4745 6.40986 16.9231 7.08924 16.9231H7.10156C7.78095 16.9231 8.33233 17.4745 8.33233 18.1538ZM13.2554 18.1538C13.2554 18.8332 12.7053 19.3846 12.0246 19.3846C11.3453 19.3846 10.7876 18.8332 10.7876 18.1538C10.7876 17.4745 11.3329 16.9231 12.0123 16.9231H12.0246C12.704 16.9231 13.2554 17.4745 13.2554 18.1538ZM18.1785 18.1538C18.1785 18.8332 17.6283 19.3846 16.9477 19.3846C16.2683 19.3846 15.7106 18.8332 15.7106 18.1538C15.7106 17.4745 16.256 16.9231 16.9354 16.9231H16.9477C17.6271 16.9231 18.1785 17.4745 18.1785 18.1538Z" fill="#451E5D"/>
</svg>
