<svg width="24" height="24" viewBox="0 0 24 24" fill="none" xmlns="http://www.w3.org/2000/svg">
<path d="M24 18.8571C24 19.4249 23.5392 19.8857 22.9714 19.8857H19.8857V22.9714C19.8857 23.5392 19.4249 24 18.8571 24C18.2894 24 17.8286 23.5392 17.8286 22.9714V19.8857H14.7429C14.1751 19.8857 13.7143 19.4249 13.7143 18.8571C13.7143 18.2894 14.1751 17.8286 14.7429 17.8286H17.8286V14.7429C17.8286 14.1751 18.2894 13.7143 18.8571 13.7143C19.4249 13.7143 19.8857 14.1751 19.8857 14.7429V17.8286H22.9714C23.5392 17.8286 24 18.2894 24 18.8571ZM24 3.08571V7.2C24 9.13234 22.8466 10.2857 20.9143 10.2857H16.8C14.8677 10.2857 13.7143 9.13234 13.7143 7.2V3.08571C13.7143 1.15337 14.8677 0 16.8 0H20.9143C22.8466 0 24 1.15337 24 3.08571ZM21.9429 3.08571C21.9429 2.27794 21.7221 2.05714 20.9143 2.05714H16.8C15.9922 2.05714 15.7714 2.27794 15.7714 3.08571V7.2C15.7714 8.00777 15.9922 8.22857 16.8 8.22857H20.9143C21.7221 8.22857 21.9429 8.00777 21.9429 7.2V3.08571ZM10.2857 3.08571V7.2C10.2857 9.13234 9.13234 10.2857 7.2 10.2857H3.08571C1.15337 10.2857 0 9.13234 0 7.2V3.08571C0 1.15337 1.15337 0 3.08571 0H7.2C9.13234 0 10.2857 1.15337 10.2857 3.08571ZM8.22857 3.08571C8.22857 2.27794 8.00777 2.05714 7.2 2.05714H3.08571C2.27794 2.05714 2.05714 2.27794 2.05714 3.08571V7.2C2.05714 8.00777 2.27794 8.22857 3.08571 8.22857H7.2C8.00777 8.22857 8.22857 8.00777 8.22857 7.2V3.08571ZM10.2857 16.8V20.9143C10.2857 22.8466 9.13234 24 7.2 24H3.08571C1.15337 24 0 22.8466 0 20.9143V16.8C0 14.8677 1.15337 13.7143 3.08571 13.7143H7.2C9.13234 13.7143 10.2857 14.8677 10.2857 16.8ZM8.22857 16.8C8.22857 15.9922 8.00777 15.7714 7.2 15.7714H3.08571C2.27794 15.7714 2.05714 15.9922 2.05714 16.8V20.9143C2.05714 21.7221 2.27794 21.9429 3.08571 21.9429H7.2C8.00777 21.9429 8.22857 21.7221 8.22857 20.9143V16.8Z" fill="#451E5D"/>
</svg>
