<svg width="22" height="24" viewBox="0 0 22 24" fill="none" xmlns="http://www.w3.org/2000/svg">
<path d="M20.8075 15.9549C20.0617 15.5375 19.1749 15.5464 18.437 15.9851L16.2145 17.3045C15.8659 16.3289 14.9239 15.6279 13.8205 15.6279H7.61538C6.8922 15.6279 6.23444 15.8847 5.70644 16.2966C5.34429 15.8902 4.82082 15.6279 4.23077 15.6279H1.97436C0.885641 15.6279 0 16.5042 0 17.5814V22.0465C0 23.1237 0.885641 24 1.97436 24H4.23077C4.81969 24 5.34429 23.7377 5.70644 23.3314C6.23444 23.7433 6.8922 24 7.61538 24H13.9299C15.1427 24 16.3318 23.587 17.2784 22.8379L21.1178 19.7983C21.6785 19.354 22 18.691 22 17.9811C22.0011 17.1316 21.5543 16.3747 20.8075 15.9549ZM4.51392 22.0465C4.51392 22.2006 4.38756 22.3256 4.23187 22.3256H1.97546C1.81977 22.3256 1.69341 22.2006 1.69341 22.0465V17.5814C1.69341 17.4273 1.81977 17.3023 1.97546 17.3023H4.23187C4.38756 17.3023 4.51392 17.4273 4.51392 17.5814V18.6977V20.9302V22.0465ZM20.0606 18.4911L16.2213 21.5308C15.5748 22.0431 14.7603 22.3256 13.9311 22.3256H7.61649C6.83915 22.3256 6.20623 21.6994 6.20623 20.9302V18.6977C6.20623 17.9286 6.83915 17.3023 7.61649 17.3023H13.8216C14.2876 17.3023 14.6678 17.6774 14.6678 18.1395C14.6678 18.6017 14.2876 18.9767 13.8216 18.9767H9.8729C9.40582 18.9767 9.02674 19.3518 9.02674 19.814C9.02674 20.2761 9.40582 20.6512 9.8729 20.6512H13.8216C14.7727 20.6512 15.603 20.1309 16.0385 19.3629L19.3081 17.4218C19.6082 17.2432 19.8744 17.357 19.9737 17.4139C20.0741 17.4697 20.3088 17.6383 20.3088 17.9822C20.3088 18.1808 20.2186 18.3672 20.0606 18.4911ZM11.0067 5.5814C12.5625 5.5814 13.8273 4.32893 13.8273 2.7907C13.8273 1.25247 12.5625 0 11.0067 0C9.45095 0 8.18624 1.25247 8.18624 2.7907C8.18624 4.32893 9.45095 5.5814 11.0067 5.5814ZM11.0067 1.67442C11.6295 1.67442 12.135 2.17563 12.135 2.7907C12.135 3.40577 11.6295 3.90698 11.0067 3.90698C10.384 3.90698 9.87854 3.40577 9.87854 2.7907C9.87854 2.17563 10.384 1.67442 11.0067 1.67442ZM8.74579 12.8372H13.2564C14.8461 12.8372 15.796 11.9018 15.796 10.3357C15.796 8.52394 14.6621 6.69767 12.1293 6.69767H9.8729C7.34008 6.69767 6.20623 8.52506 6.20623 10.3357C6.20623 11.9018 7.15615 12.8372 8.74579 12.8372ZM9.8729 8.37209H12.1293C13.8464 8.37209 14.1037 9.60227 14.1037 10.3357C14.1037 10.9775 13.9142 11.1628 13.2564 11.1628H8.74579C8.08805 11.1628 7.89854 10.9775 7.89854 10.3357C7.89854 9.60227 8.15577 8.37209 9.8729 8.37209Z" fill="#451E5D"/>
</svg>
