<svg width="19" height="24" viewBox="0 0 19 24" fill="none" xmlns="http://www.w3.org/2000/svg">
<path d="M9.51107 10.4615C6.63778 10.4615 4.3014 8.11446 4.3014 5.23077C4.3014 2.34708 6.63778 0 9.51107 0C12.3844 0 14.7208 2.34708 14.7208 5.23077C14.7208 8.11446 12.3844 10.4615 9.51107 10.4615ZM9.51107 1.84615C7.65152 1.84615 6.14011 3.36369 6.14011 5.23077C6.14011 7.09785 7.65152 8.61539 9.51107 8.61539C11.3706 8.61539 12.882 7.09785 12.882 5.23077C12.882 3.36369 11.3694 1.84615 9.51107 1.84615ZM14.3995 24H4.60052C1.63406 24 0 22.3693 0 19.4081C0 16.133 1.84606 12.3077 7.04839 12.3077H11.9516C17.1539 12.3077 19 16.1317 19 19.4081C19 22.3693 17.3659 24 14.3995 24ZM7.04839 14.1538C2.21503 14.1538 1.83871 18.1748 1.83871 19.4081C1.83871 21.333 2.66497 22.1538 4.60052 22.1538H14.3995C16.335 22.1538 17.1613 21.333 17.1613 19.4081C17.1613 18.1761 16.785 14.1538 11.9516 14.1538H7.04839Z" fill="#451E5D"/>
</svg>
